<mxfile host="Electron" modified="2023-11-22T18:25:41.790Z" agent="Mozilla/5.0 (Windows NT 10.0; Win64; x64) AppleWebKit/537.36 (KHTML, like Gecko) draw.io/22.1.2 Chrome/114.0.5735.289 Electron/25.9.4 Safari/537.36" etag="-S1_QfHX2nMuHme1puf_" version="22.1.2" type="device">
  <diagram name="Page-1" id="-nB4g5NT54EziC32JLVT">
    <mxGraphModel dx="1098" dy="820" grid="1" gridSize="10" guides="1" tooltips="1" connect="1" arrows="1" fold="1" page="1" pageScale="1" pageWidth="850" pageHeight="1100" math="0" shadow="0">
      <root>
        <mxCell id="0" />
        <mxCell id="1" parent="0" />
        <mxCell id="GfyhJmOeRdke79yjuKSY-5" style="edgeStyle=orthogonalEdgeStyle;rounded=0;orthogonalLoop=1;jettySize=auto;html=1;" edge="1" parent="1" source="GfyhJmOeRdke79yjuKSY-2" target="GfyhJmOeRdke79yjuKSY-3">
          <mxGeometry relative="1" as="geometry" />
        </mxCell>
        <mxCell id="GfyhJmOeRdke79yjuKSY-7" style="edgeStyle=orthogonalEdgeStyle;rounded=0;orthogonalLoop=1;jettySize=auto;html=1;entryX=0.5;entryY=0;entryDx=0;entryDy=0;" edge="1" parent="1" source="GfyhJmOeRdke79yjuKSY-2" target="GfyhJmOeRdke79yjuKSY-6">
          <mxGeometry relative="1" as="geometry" />
        </mxCell>
        <mxCell id="GfyhJmOeRdke79yjuKSY-2" value="&lt;b&gt;Process Information Gatherer:&lt;/b&gt;&lt;br&gt;&lt;br&gt;&lt;div style=&quot;&quot;&gt;&lt;ul&gt;&lt;li style=&quot;text-align: left;&quot;&gt;Process Name&lt;/li&gt;&lt;li style=&quot;text-align: left;&quot;&gt;Process Command&amp;nbsp;&lt;/li&gt;&lt;li style=&quot;text-align: left;&quot;&gt;Cpu Usage&lt;/li&gt;&lt;/ul&gt;&lt;/div&gt;" style="rounded=1;whiteSpace=wrap;html=1;fillColor=#1ba1e2;fontColor=#ffffff;strokeColor=#006EAF;" vertex="1" parent="1">
          <mxGeometry x="290" y="130" width="210" height="130" as="geometry" />
        </mxCell>
        <mxCell id="GfyhJmOeRdke79yjuKSY-9" style="edgeStyle=orthogonalEdgeStyle;rounded=0;orthogonalLoop=1;jettySize=auto;html=1;entryX=0.5;entryY=0;entryDx=0;entryDy=0;" edge="1" parent="1" source="GfyhJmOeRdke79yjuKSY-3" target="GfyhJmOeRdke79yjuKSY-8">
          <mxGeometry relative="1" as="geometry" />
        </mxCell>
        <mxCell id="GfyhJmOeRdke79yjuKSY-3" value="Local Logging Capability" style="rounded=1;whiteSpace=wrap;html=1;fillColor=#008a00;fontColor=#ffffff;strokeColor=#005700;" vertex="1" parent="1">
          <mxGeometry x="40" y="300" width="150" height="80" as="geometry" />
        </mxCell>
        <mxCell id="GfyhJmOeRdke79yjuKSY-22" style="edgeStyle=orthogonalEdgeStyle;rounded=0;orthogonalLoop=1;jettySize=auto;html=1;entryX=1;entryY=0;entryDx=0;entryDy=0;" edge="1" parent="1" source="GfyhJmOeRdke79yjuKSY-6" target="GfyhJmOeRdke79yjuKSY-20">
          <mxGeometry relative="1" as="geometry" />
        </mxCell>
        <mxCell id="GfyhJmOeRdke79yjuKSY-23" value="Authenticates&amp;nbsp;" style="edgeLabel;html=1;align=center;verticalAlign=middle;resizable=0;points=[];" vertex="1" connectable="0" parent="GfyhJmOeRdke79yjuKSY-22">
          <mxGeometry x="-0.1602" y="1" relative="1" as="geometry">
            <mxPoint as="offset" />
          </mxGeometry>
        </mxCell>
        <mxCell id="GfyhJmOeRdke79yjuKSY-6" value="HttpClient Library to send the data" style="rounded=1;whiteSpace=wrap;html=1;fillColor=#008a00;fontColor=#ffffff;strokeColor=#005700;" vertex="1" parent="1">
          <mxGeometry x="600" y="300" width="150" height="80" as="geometry" />
        </mxCell>
        <mxCell id="GfyhJmOeRdke79yjuKSY-8" value="Stores Logs locally rotated every time day reach 5mb&amp;nbsp; under /var/log/cloud_vigilante" style="ellipse;whiteSpace=wrap;html=1;fillColor=#f0a30a;fontColor=#000000;strokeColor=#BD7000;" vertex="1" parent="1">
          <mxGeometry x="27.5" y="450" width="175" height="120" as="geometry" />
        </mxCell>
        <mxCell id="GfyhJmOeRdke79yjuKSY-10" value="Sends the data to our backend every second via post request" style="ellipse;whiteSpace=wrap;html=1;fillColor=#f0a30a;fontColor=#000000;strokeColor=#BD7000;" vertex="1" parent="1">
          <mxGeometry x="600" y="520" width="175" height="120" as="geometry" />
        </mxCell>
        <mxCell id="GfyhJmOeRdke79yjuKSY-46" style="edgeStyle=orthogonalEdgeStyle;rounded=0;orthogonalLoop=1;jettySize=auto;html=1;entryX=0.5;entryY=0;entryDx=0;entryDy=0;" edge="1" parent="1" source="GfyhJmOeRdke79yjuKSY-12" target="GfyhJmOeRdke79yjuKSY-45">
          <mxGeometry relative="1" as="geometry" />
        </mxCell>
        <mxCell id="GfyhJmOeRdke79yjuKSY-12" value="&lt;div style=&quot;text-align: center;&quot;&gt;&lt;b style=&quot;background-color: initial;&quot;&gt;Backend&lt;br&gt;&lt;br&gt;&lt;br&gt;&lt;/b&gt;&lt;/div&gt;&lt;div style=&quot;text-align: center;&quot;&gt;&lt;span style=&quot;background-color: initial;&quot;&gt;Made in bun will grab the info and parse to send it to the front end&lt;br&gt;&lt;/span&gt;&lt;br&gt;WILL VALIDATE TOKEN SENT FROM DEVICE AND FRONT END&lt;/div&gt;" style="rounded=1;whiteSpace=wrap;html=1;fillColor=#1ba1e2;fontColor=#ffffff;strokeColor=#006EAF;perimeterSpacing=2;strokeWidth=1;verticalAlign=top;align=left;" vertex="1" parent="1">
          <mxGeometry x="300" y="650" width="210" height="130" as="geometry" />
        </mxCell>
        <mxCell id="GfyhJmOeRdke79yjuKSY-16" value="Sends data to the front end in real time using&amp;nbsp;WebSockets or Server-Sent Events (SSE)" style="ellipse;whiteSpace=wrap;html=1;fillColor=#f0a30a;fontColor=#000000;strokeColor=#BD7000;" vertex="1" parent="1">
          <mxGeometry x="308.75" y="900" width="192.5" height="130" as="geometry" />
        </mxCell>
        <mxCell id="GfyhJmOeRdke79yjuKSY-31" style="edgeStyle=orthogonalEdgeStyle;rounded=0;orthogonalLoop=1;jettySize=auto;html=1;entryX=0;entryY=0.5;entryDx=0;entryDy=0;exitX=0;exitY=0.5;exitDx=0;exitDy=0;" edge="1" parent="1" source="GfyhJmOeRdke79yjuKSY-18" target="GfyhJmOeRdke79yjuKSY-20">
          <mxGeometry relative="1" as="geometry">
            <mxPoint x="270" y="1338" as="sourcePoint" />
            <Array as="points">
              <mxPoint x="288" y="1338" />
              <mxPoint x="170" y="1338" />
              <mxPoint x="170" y="845" />
              <mxPoint x="240" y="845" />
              <mxPoint x="240" y="440" />
            </Array>
          </mxGeometry>
        </mxCell>
        <mxCell id="GfyhJmOeRdke79yjuKSY-32" value="Authenticates" style="edgeLabel;html=1;align=center;verticalAlign=middle;resizable=0;points=[];" vertex="1" connectable="0" parent="GfyhJmOeRdke79yjuKSY-31">
          <mxGeometry x="-0.1052" y="2" relative="1" as="geometry">
            <mxPoint as="offset" />
          </mxGeometry>
        </mxCell>
        <mxCell id="GfyhJmOeRdke79yjuKSY-39" style="edgeStyle=orthogonalEdgeStyle;rounded=0;orthogonalLoop=1;jettySize=auto;html=1;" edge="1" parent="1" source="GfyhJmOeRdke79yjuKSY-18" target="GfyhJmOeRdke79yjuKSY-16">
          <mxGeometry relative="1" as="geometry">
            <mxPoint x="405" y="1130" as="targetPoint" />
          </mxGeometry>
        </mxCell>
        <mxCell id="GfyhJmOeRdke79yjuKSY-18" value="&lt;div style=&quot;&quot;&gt;&lt;b&gt;Frontend WebApp&lt;/b&gt;&lt;br&gt;&lt;br&gt;&lt;div style=&quot;&quot;&gt;Gets the data via&amp;nbsp;use WebSockets or Server-Sent Events (SSE) and display graphics for CPU usage for each process&lt;/div&gt;&lt;/div&gt;" style="rounded=1;whiteSpace=wrap;html=1;fillColor=#1ba1e2;fontColor=#ffffff;strokeColor=#006EAF;perimeterSpacing=2;strokeWidth=1;verticalAlign=top;align=center;" vertex="1" parent="1">
          <mxGeometry x="290" y="1260" width="230" height="140" as="geometry" />
        </mxCell>
        <mxCell id="GfyhJmOeRdke79yjuKSY-29" style="edgeStyle=orthogonalEdgeStyle;rounded=0;orthogonalLoop=1;jettySize=auto;html=1;entryX=0;entryY=0.75;entryDx=0;entryDy=0;" edge="1" parent="1" source="GfyhJmOeRdke79yjuKSY-20" target="GfyhJmOeRdke79yjuKSY-6">
          <mxGeometry relative="1" as="geometry">
            <mxPoint x="670" y="400" as="targetPoint" />
            <Array as="points">
              <mxPoint x="570" y="440" />
              <mxPoint x="570" y="360" />
            </Array>
          </mxGeometry>
        </mxCell>
        <mxCell id="GfyhJmOeRdke79yjuKSY-30" value="Gets Token" style="edgeLabel;html=1;align=center;verticalAlign=middle;resizable=0;points=[];" vertex="1" connectable="0" parent="GfyhJmOeRdke79yjuKSY-29">
          <mxGeometry x="-0.0443" y="-1" relative="1" as="geometry">
            <mxPoint x="1" as="offset" />
          </mxGeometry>
        </mxCell>
        <mxCell id="GfyhJmOeRdke79yjuKSY-48" style="edgeStyle=orthogonalEdgeStyle;rounded=0;orthogonalLoop=1;jettySize=auto;html=1;exitX=0;exitY=1;exitDx=0;exitDy=0;entryX=0.25;entryY=0;entryDx=0;entryDy=0;" edge="1" parent="1" source="GfyhJmOeRdke79yjuKSY-20" target="GfyhJmOeRdke79yjuKSY-18">
          <mxGeometry relative="1" as="geometry">
            <mxPoint x="286" y="1318" as="targetPoint" />
            <Array as="points">
              <mxPoint x="280" y="495" />
              <mxPoint x="280" y="1230" />
              <mxPoint x="347" y="1230" />
            </Array>
          </mxGeometry>
        </mxCell>
        <mxCell id="GfyhJmOeRdke79yjuKSY-49" value="Gets Token" style="edgeLabel;html=1;align=center;verticalAlign=middle;resizable=0;points=[];" vertex="1" connectable="0" parent="GfyhJmOeRdke79yjuKSY-48">
          <mxGeometry x="0.0289" y="1" relative="1" as="geometry">
            <mxPoint as="offset" />
          </mxGeometry>
        </mxCell>
        <mxCell id="GfyhJmOeRdke79yjuKSY-20" value="&lt;b&gt;Authentication for APIs will be done using OAUTH 2.0 and JWT&lt;/b&gt;" style="rhombus;whiteSpace=wrap;html=1;fillColor=#76608a;fontColor=#ffffff;strokeColor=#432D57;" vertex="1" parent="1">
          <mxGeometry x="290" y="330" width="205" height="220" as="geometry" />
        </mxCell>
        <mxCell id="GfyhJmOeRdke79yjuKSY-40" style="edgeStyle=orthogonalEdgeStyle;rounded=0;orthogonalLoop=1;jettySize=auto;html=1;entryX=0.466;entryY=-0.025;entryDx=0;entryDy=0;entryPerimeter=0;" edge="1" parent="1" source="GfyhJmOeRdke79yjuKSY-6" target="GfyhJmOeRdke79yjuKSY-10">
          <mxGeometry relative="1" as="geometry" />
        </mxCell>
        <mxCell id="GfyhJmOeRdke79yjuKSY-41" value="Validates the Token" style="shape=parallelogram;perimeter=parallelogramPerimeter;whiteSpace=wrap;html=1;fixedSize=1;" vertex="1" parent="1">
          <mxGeometry x="605" y="710" width="140" height="40" as="geometry" />
        </mxCell>
        <mxCell id="GfyhJmOeRdke79yjuKSY-43" style="edgeStyle=orthogonalEdgeStyle;rounded=0;orthogonalLoop=1;jettySize=auto;html=1;entryX=0.571;entryY=0.05;entryDx=0;entryDy=0;entryPerimeter=0;" edge="1" parent="1" source="GfyhJmOeRdke79yjuKSY-10" target="GfyhJmOeRdke79yjuKSY-41">
          <mxGeometry relative="1" as="geometry" />
        </mxCell>
        <mxCell id="GfyhJmOeRdke79yjuKSY-44" style="edgeStyle=orthogonalEdgeStyle;rounded=0;orthogonalLoop=1;jettySize=auto;html=1;entryX=0.986;entryY=0.597;entryDx=0;entryDy=0;entryPerimeter=0;" edge="1" parent="1" source="GfyhJmOeRdke79yjuKSY-41" target="GfyhJmOeRdke79yjuKSY-12">
          <mxGeometry relative="1" as="geometry" />
        </mxCell>
        <mxCell id="GfyhJmOeRdke79yjuKSY-47" style="edgeStyle=orthogonalEdgeStyle;rounded=0;orthogonalLoop=1;jettySize=auto;html=1;" edge="1" parent="1" source="GfyhJmOeRdke79yjuKSY-45" target="GfyhJmOeRdke79yjuKSY-16">
          <mxGeometry relative="1" as="geometry" />
        </mxCell>
        <mxCell id="GfyhJmOeRdke79yjuKSY-45" value="Validates the Token" style="shape=parallelogram;perimeter=parallelogramPerimeter;whiteSpace=wrap;html=1;fixedSize=1;" vertex="1" parent="1">
          <mxGeometry x="335" y="830" width="140" height="40" as="geometry" />
        </mxCell>
      </root>
    </mxGraphModel>
  </diagram>
</mxfile>
